<mxfile host="app.diagrams.net" modified="2023-06-03T16:43:11.452Z" agent="Mozilla/5.0 (Windows NT 10.0; Win64; x64) AppleWebKit/537.36 (KHTML, like Gecko) Chrome/112.0.0.0 Safari/537.36 OPR/98.0.0.0" etag="O_CaVblVpDG4I5A7yHs6" version="21.3.7" type="github">
  <diagram name="Page-1" id="zgVPB7kzvQOlFqmxSK4n">
    <mxGraphModel dx="1434" dy="758" grid="1" gridSize="10" guides="1" tooltips="1" connect="1" arrows="1" fold="1" page="1" pageScale="1" pageWidth="827" pageHeight="1169" math="0" shadow="0">
      <root>
        <mxCell id="0" />
        <mxCell id="1" parent="0" />
        <mxCell id="2eth6tbk9H1MXdVzeepq-3" value="" style="pointerEvents=1;verticalLabelPosition=bottom;shadow=0;dashed=0;align=center;html=1;verticalAlign=top;shape=mxgraph.electrical.waveforms.sine_wave;strokeWidth=4;" vertex="1" parent="1">
          <mxGeometry x="104" y="110" width="620" height="420" as="geometry" />
        </mxCell>
        <mxCell id="2eth6tbk9H1MXdVzeepq-4" value="" style="endArrow=none;html=1;rounded=0;" edge="1" parent="1">
          <mxGeometry width="50" height="50" relative="1" as="geometry">
            <mxPoint x="80" y="320" as="sourcePoint" />
            <mxPoint x="780" y="320" as="targetPoint" />
          </mxGeometry>
        </mxCell>
        <mxCell id="2eth6tbk9H1MXdVzeepq-5" value="" style="endArrow=classic;startArrow=none;html=1;rounded=0;strokeWidth=3;spacing=2;verticalAlign=middle;labelPosition=right;verticalLabelPosition=middle;align=left;startFill=0;" edge="1" parent="1">
          <mxGeometry y="70" width="50" height="50" relative="1" as="geometry">
            <mxPoint x="260" y="320" as="sourcePoint" />
            <mxPoint x="260" y="160" as="targetPoint" />
            <Array as="points" />
            <mxPoint as="offset" />
          </mxGeometry>
        </mxCell>
        <mxCell id="2eth6tbk9H1MXdVzeepq-10" value="" style="endArrow=classic;startArrow=none;html=1;rounded=0;strokeWidth=3;spacing=2;verticalAlign=middle;labelPosition=right;verticalLabelPosition=middle;align=left;startFill=0;" edge="1" parent="1">
          <mxGeometry x="-0.0588" y="70" width="50" height="50" relative="1" as="geometry">
            <mxPoint x="570" y="320" as="sourcePoint" />
            <mxPoint x="570" y="480" as="targetPoint" />
            <Array as="points">
              <mxPoint x="570" y="430" />
            </Array>
            <mxPoint as="offset" />
          </mxGeometry>
        </mxCell>
        <mxCell id="2eth6tbk9H1MXdVzeepq-12" value="" style="endArrow=classic;html=1;rounded=0;" edge="1" parent="1">
          <mxGeometry width="50" height="50" relative="1" as="geometry">
            <mxPoint x="104" y="520" as="sourcePoint" />
            <mxPoint x="104" y="80" as="targetPoint" />
          </mxGeometry>
        </mxCell>
        <mxCell id="2eth6tbk9H1MXdVzeepq-13" value="-500" style="text;html=1;strokeColor=none;fillColor=none;align=center;verticalAlign=middle;whiteSpace=wrap;rounded=0;fontStyle=1;fontSize=18;" vertex="1" parent="1">
          <mxGeometry x="53" y="460" width="60" height="30" as="geometry" />
        </mxCell>
        <mxCell id="2eth6tbk9H1MXdVzeepq-15" value="" style="endArrow=none;dashed=1;html=1;dashPattern=1 3;strokeWidth=2;rounded=0;exitX=1.004;exitY=0.626;exitDx=0;exitDy=0;exitPerimeter=0;" edge="1" parent="1">
          <mxGeometry width="50" height="50" relative="1" as="geometry">
            <mxPoint x="104.00000000000001" y="158.77999999999997" as="sourcePoint" />
            <mxPoint x="260" y="160" as="targetPoint" />
          </mxGeometry>
        </mxCell>
        <mxCell id="2eth6tbk9H1MXdVzeepq-16" value="500" style="text;html=1;strokeColor=none;fillColor=none;align=center;verticalAlign=middle;whiteSpace=wrap;rounded=0;fontStyle=1;fontSize=18;" vertex="1" parent="1">
          <mxGeometry x="53" y="140" width="60" height="30" as="geometry" />
        </mxCell>
        <mxCell id="2eth6tbk9H1MXdVzeepq-17" value="" style="endArrow=none;dashed=1;html=1;dashPattern=1 3;strokeWidth=2;rounded=0;exitX=1.004;exitY=0.626;exitDx=0;exitDy=0;exitPerimeter=0;" edge="1" parent="1">
          <mxGeometry width="50" height="50" relative="1" as="geometry">
            <mxPoint x="104.00000000000001" y="480" as="sourcePoint" />
            <mxPoint x="570" y="480" as="targetPoint" />
          </mxGeometry>
        </mxCell>
        <mxCell id="2eth6tbk9H1MXdVzeepq-18" value="&lt;b style=&quot;font-size: 18px;&quot;&gt;Depth = 500&amp;nbsp;&lt;/b&gt;" style="text;html=1;strokeColor=none;fillColor=none;align=center;verticalAlign=middle;whiteSpace=wrap;rounded=0;fontSize=18;" vertex="1" parent="1">
          <mxGeometry x="584" y="60" width="130" height="30" as="geometry" />
        </mxCell>
        <mxCell id="2eth6tbk9H1MXdVzeepq-19" value="&lt;b style=&quot;font-size: 18px;&quot;&gt;Rate = 1 Hz&amp;nbsp;&lt;/b&gt;" style="text;html=1;strokeColor=none;fillColor=none;align=center;verticalAlign=middle;whiteSpace=wrap;rounded=0;fontSize=18;" vertex="1" parent="1">
          <mxGeometry x="584" y="90" width="130" height="30" as="geometry" />
        </mxCell>
        <mxCell id="2eth6tbk9H1MXdVzeepq-22" value="" style="endArrow=none;dashed=1;html=1;dashPattern=1 3;strokeWidth=2;rounded=0;exitX=1;exitY=0.321;exitDx=0;exitDy=0;exitPerimeter=0;" edge="1" parent="1" source="2eth6tbk9H1MXdVzeepq-3">
          <mxGeometry width="50" height="50" relative="1" as="geometry">
            <mxPoint x="730" y="240" as="sourcePoint" />
            <mxPoint x="724" y="320" as="targetPoint" />
          </mxGeometry>
        </mxCell>
        <mxCell id="2eth6tbk9H1MXdVzeepq-23" value="&lt;font style=&quot;font-size: 18px;&quot;&gt;1 Hz&lt;/font&gt;" style="text;html=1;strokeColor=none;fillColor=none;align=center;verticalAlign=middle;whiteSpace=wrap;rounded=0;fontStyle=1" vertex="1" parent="1">
          <mxGeometry x="690" y="210" width="60" height="30" as="geometry" />
        </mxCell>
        <mxCell id="2eth6tbk9H1MXdVzeepq-24" value="&lt;b style=&quot;font-size: 18px;&quot;&gt;Sine Wave LFO&lt;/b&gt;" style="text;html=1;strokeColor=none;fillColor=none;align=center;verticalAlign=middle;whiteSpace=wrap;rounded=0;fontSize=18;" vertex="1" parent="1">
          <mxGeometry x="334" y="60" width="160" height="30" as="geometry" />
        </mxCell>
        <mxCell id="2eth6tbk9H1MXdVzeepq-26" value="&lt;b style=&quot;font-size: 18px;&quot;&gt;Counter = 128&amp;nbsp;&lt;/b&gt;" style="text;html=1;strokeColor=none;fillColor=none;align=center;verticalAlign=middle;whiteSpace=wrap;rounded=0;fontSize=18;" vertex="1" parent="1">
          <mxGeometry x="594" y="30" width="130" height="30" as="geometry" />
        </mxCell>
      </root>
    </mxGraphModel>
  </diagram>
</mxfile>
